<svg id="visual" viewBox="0 0 900 600" width="900" height="600" xmlns="http://www.w3.org/2000/svg" xmlns:xlink="http://www.w3.org/1999/xlink" version="1.1"><rect x="0" y="0" width="900" height="600" fill="#002233"></rect><path d="M0 462L16.7 476.2C33.3 490.3 66.7 518.7 100 520.7C133.3 522.7 166.7 498.3 200 496.2C233.3 494 266.7 514 300 506.5C333.3 499 366.7 464 400 465.8C433.3 467.7 466.7 506.3 500 513.7C533.3 521 566.7 497 600 482.3C633.3 467.7 666.7 462.3 700 458C733.3 453.7 766.7 450.3 800 462C833.3 473.7 866.7 500.3 883.3 513.7L900 527L900 601L883.3 601C866.7 601 833.3 601 800 601C766.7 601 733.3 601 700 601C666.7 601 633.3 601 600 601C566.7 601 533.3 601 500 601C466.7 601 433.3 601 400 601C366.7 601 333.3 601 300 601C266.7 601 233.3 601 200 601C166.7 601 133.3 601 100 601C66.7 601 33.3 601 16.7 601L0 601Z" fill="#0066FF" stroke-linecap="round" stroke-linejoin="miter"></path></svg>