<svg id="visual" viewBox="0 0 960 540" width="960" height="540" xmlns="http://www.w3.org/2000/svg" xmlns:xlink="http://www.w3.org/1999/xlink" version="1.1"><rect x="0" y="0" width="960" height="540" fill="#002233"></rect><path d="M0 415L17.8 428C35.7 441 71.3 467 106.8 468.8C142.3 470.7 177.7 448.3 213.2 446.3C248.7 444.3 284.3 462.7 320 456C355.7 449.3 391.3 417.7 426.8 419.3C462.3 421 497.7 456 533.2 462.7C568.7 469.3 604.3 447.7 640 434.3C675.7 421 711.3 416 746.8 412C782.3 408 817.7 405 853.2 415.5C888.7 426 924.3 450 942.2 462L960 474L960 541L942.2 541C924.3 541 888.7 541 853.2 541C817.7 541 782.3 541 746.8 541C711.3 541 675.7 541 640 541C604.3 541 568.7 541 533.2 541C497.7 541 462.3 541 426.8 541C391.3 541 355.7 541 320 541C284.3 541 248.7 541 213.2 541C177.7 541 142.3 541 106.8 541C71.3 541 35.7 541 17.8 541L0 541Z" fill="#0066FF" stroke-linecap="round" stroke-linejoin="miter"></path></svg>